# xmcd
#
# Track frame offsets: 
#        150
#        15495
#        33010
#        50175
#        63007
#        75830
#        95095
#        116617
#        135150
#        155960
#        173335
#
# Disc length: 2542 seconds
#
# Revision: 3
# Processed by: cddbd v1.5.1PL2 Copyright (c) Steve Scherf et al.
# Submitted via: ExactAudioCopy v0.90b4
#
DISCID=7909ec0b
DTITLE=Trent Willmon - Trent Willmon
DYEAR=2004
DGENRE=Country
TTITLE0=Beer Man
TTITLE1=Dixie Rose Deluxe's Honky Tonk, Feed Store, Gun Shop, Used Car
TTITLE1=, Beer, Bait, BBQ, Barber Shop, Laundromat
TTITLE2=Home Sweet Holiday Inn
TTITLE3=She Don't Love Me
TTITLE4=The Good Life
TTITLE5=Population 81
TTITLE6=Medina Daydreaming
TTITLE7=The Wishing Well
TTITLE8=All Day Long
TTITLE9=Every Now and Then
TTITLE10=Here
EXTD=
EXTT0=
EXTT1=
EXTT2=
EXTT3=
EXTT4=
EXTT5=
EXTT6=
EXTT7=
EXTT8=
EXTT9=
EXTT10=
PLAYORDER=
